<?xml version="1.0" encoding="utf-8"?>
<!-- Generator: Adobe Illustrator 16.0.0, SVG Export Plug-In . SVG Version: 6.00 Build 0)  -->
<!DOCTYPE svg PUBLIC "-//W3C//DTD SVG 1.1//EN" "http://www.w3.org/Graphics/SVG/1.1/DTD/svg11.dtd">
<svg version="1.1" id="Layer_1" xmlns="http://www.w3.org/2000/svg" xmlns:xlink="http://www.w3.org/1999/xlink" x="0px" y="0px"
	 width="531.295px" height="106.012px" viewBox="1.092 23.359 531.295 106.012"
	 enable-background="new 1.092 23.359 531.295 106.012" xml:space="preserve">
<g enable-background="new    ">
	<path fill="#353535" d="M1.092,53.02h29.736v2.101h-9.24v27.636H45.78V55.121h-9.24V53.02h29.736v2.101h-9.24v59.136h9.24v2.1
		H36.54v-2.1h9.24v-29.4H21.588v29.4h9.24v2.1H1.092v-2.1h9.24V55.121h-9.24V53.02z"/>
	<path fill="#353535" d="M92.063,85.864v28.393h15.624c8.316,0,13.104-8.232,13.272-17.641h2.94v19.74H70.896v-2.1h9.912V55.121
		h-9.912V53.02h50.484v17.22h-2.94c-0.168-8.147-4.956-15.119-13.272-15.119H92.063v28.644c10.164,0,13.02-2.604,13.02-11.592h2.94
		v26.04h-2.94C104.832,88.888,102.228,85.948,92.063,85.864z"/>
	<path fill="#353535" d="M129.863,114.256h7.476l21.672-62.244h2.52l20.748,62.244h7.812v2.1h-28.812v-2.1h9.744l-5.88-17.725
		h-18.984l-6.048,17.725h9.912v2.1h-20.16V114.256z M155.567,68.896l-8.652,25.536h17.472l-8.484-25.536H155.567z"/>
</g>
<g enable-background="new    ">
	<path fill="#353535" d="M224.698,53.02c16.8,0,29.904,15.036,29.904,31.668s-13.188,31.668-29.988,31.668h-30.66v-2.1h9.24V55.121
		h-9.24V53.02H224.698z M214.45,55.121v59.136h7.644c13.776,0,19.068-5.544,19.068-29.568c0-24.023-5.376-29.567-19.152-29.567
		H214.45z"/>
</g>
<g enable-background="new    ">
	<path fill="#353535" d="M256.785,53.02h31.333v2.101h-10.164v59.136h14.363c8.316,0,13.104-8.232,13.272-17.641h2.94v19.74h-51.745
		v-2.1h9.912V55.121h-9.912V53.02z"/>
	<path fill="#353535" d="M315.332,53.02h29.735v2.101h-9.239v59.136h9.239v2.1h-29.735v-2.1h9.24V55.121h-9.24V53.02z"/>
	<path fill="#353535" d="M390.512,53.02h20.076v2.101h-8.4v62.243h-2.604l-36.625-58.38h-0.336v55.272h9.24v2.1h-21.756v-2.1h9.24
		V55.121h-9.24V53.02h22.764l25.704,40.824h0.337V55.121h-8.4V53.02z"/>
</g>
<g enable-background="new    ">
	<path fill="#353535" d="M437.551,85.864v28.393h15.624c8.315,0,13.104-8.232,13.272-17.641h2.939v19.74h-53.004v-2.1h9.912V55.121
		h-9.912V53.02h50.484v17.22h-2.94c-0.168-8.147-4.956-15.119-13.272-15.119h-13.104v28.644c10.164,0,13.02-2.604,13.02-11.592h2.94
		v26.04h-2.94C450.318,88.888,447.715,85.948,437.551,85.864z"/>
</g>
<g enable-background="new    ">
	<path fill="#353535" d="M473.755,53.02h32.424c10.921,0,19.74,5.292,19.74,14.448c0,7.644-6.216,13.355-17.136,15.456v0.336
		c7.14,1.68,14.615,8.651,14.615,16.632v4.368c0,7.728,1.428,9.996,5.797,9.996h3.191v2.1h-6.468
		c-8.315,0-14.532-5.04-14.784-12.852l-0.252-6.637c-0.336-8.819-5.04-13.02-11.592-13.02h-5.04v30.408h10.92v2.1h-31.416v-2.1h9.24
		V55.121h-9.24V53.02z M494.251,55.121v26.207h4.368c10.08,0,14.279-2.52,14.279-14.111c0-10.164-3.275-12.096-10.08-12.096H494.251
		z"/>
</g>
<g enable-background="new    ">
	<path fill="#353535" d="M3.41,24.359h19.443l-1.062,7.758h-0.966c0-5.504-0.708-6.954-4.378-6.954h-1.61L9.783,47.826h3.702v0.805
		H2.572v-0.805h3.573l4.925-22.663H9.333c-2.511,0-5.375,2.189-7.275,6.954H1.092L3.41,24.359z"/>
	<path fill="#353535" d="M23.53,24.359h6.631l-3.058,12.587h0.161c1.288-1.609,3.444-3.187,5.827-3.187
		c1.642,0,2.994,0.772,2.994,2.575c0,0.386-0.064,0.869-0.193,1.417l-1.963,7.758c-0.129,0.547-0.161,0.902-0.161,1.095
		c0,0.547,0.257,0.805,0.708,0.805c0.934,0,1.996-1.127,3.348-4.121l0.644,0.29c-1.255,2.833-2.994,5.472-5.602,5.472
		c-1.513,0-2.446-0.901-2.446-2.221c0-0.354,0.064-0.708,0.128-0.999l2.125-8.82c0.064-0.322,0.128-0.58,0.128-0.837
		c0-0.741-0.482-1.063-1.191-1.063c-1.932,0-4.442,2.479-5.472,5.891l-1.835,7.629h-3.316l5.537-23.467H23.53V24.359z"/>
	<path fill="#353535" d="M53.532,37.557c0,2.736-2.833,4.539-6.728,4.539c-0.933,0-2.028-0.097-2.833-0.193
		c-0.097,0.675-0.129,1.352-0.129,1.963c0,2.865,0.934,4.218,3.123,4.218c1.771,0,3.863-0.902,5.569-3.734l0.644,0.451
		c-1.384,2.479-3.509,4.249-6.535,4.249c-4.024,0-6.664-3.187-6.664-6.535c0-4.346,4.442-8.756,8.949-8.756
		C51.633,33.759,53.532,35.336,53.532,37.557z M44.068,41.195c0.451,0.064,0.901,0.064,1.417,0.064c3.831,0,5.215-1.932,5.215-4.121
		c0-1.706-0.805-2.415-1.996-2.415C46.192,34.724,44.647,37.976,44.068,41.195z"/>
</g>
<rect x="57.867" y="40.704" fill="#353535" width="474.52" height="2"/>
<rect x="1.092" y="126.371" fill="#353535" width="531.295" height="2"/>
</svg>
